<svg width="26" height="20" viewBox="0 0 26 20" fill="none" xmlns="http://www.w3.org/2000/svg">
<path d="M4.77778 20C4.7357 19.9996 4.69386 19.9937 4.65333 19.9826C4.56102 19.9563 4.47992 19.9013 4.42222 19.8261C4.36452 19.7508 4.33333 19.6593 4.33333 19.5652V11.1152H0.444444C0.32657 11.1152 0.213524 11.0694 0.130175 10.9879C0.0468253 10.9063 0 10.7957 0 10.6804V0.434783C0 0.319471 0.0468253 0.208883 0.130175 0.127345C0.213524 0.0458074 0.32657 0 0.444444 0H10.5556C10.6734 0 10.7865 0.0458074 10.8698 0.127345C10.9532 0.208883 11 0.319471 11 0.434783V10.6717C11 10.7541 10.9761 10.8348 10.9311 10.9043L5.15333 19.7978C5.11324 19.8598 5.05778 19.9108 4.99212 19.9461C4.92646 19.9815 4.85272 20 4.77778 20Z" fill="#C8814D"/>
<path d="M19.7778 20C19.7357 19.9996 19.6939 19.9937 19.6533 19.9826C19.561 19.9563 19.4799 19.9013 19.4222 19.8261C19.3645 19.7508 19.3333 19.6593 19.3333 19.5652V11.1152H15.4444C15.3266 11.1152 15.2135 11.0694 15.1302 10.9879C15.0468 10.9063 15 10.7957 15 10.6804V0.434783C15 0.319471 15.0468 0.208883 15.1302 0.127345C15.2135 0.0458074 15.3266 0 15.4444 0H25.5556C25.6734 0 25.7865 0.0458074 25.8698 0.127345C25.9532 0.208883 26 0.319471 26 0.434783V10.6717C26 10.7541 25.9761 10.8348 25.9311 10.9043L20.1533 19.7978C20.1132 19.8598 20.0578 19.9108 19.9921 19.9461C19.9265 19.9815 19.8527 20 19.7778 20Z" fill="#C8814D"/>
</svg>
