<svg width="50" height="50" viewBox="0 0 50 50" fill="none" xmlns="http://www.w3.org/2000/svg">
<path d="M26 0H24C10.7452 0 0 10.7452 0 24V26C0 39.2548 10.7452 50 24 50H26C39.2548 50 50 39.2548 50 26V24C50 10.7452 39.2548 0 26 0Z" fill="#1F4246"/>
<path d="M27.3919 21.284C26.4199 20.24 25.0519 19.124 22.9279 19.124C18.2119 19.124 15.4399 22.832 15.4399 27.008C15.4399 31.508 17.9599 35.432 22.7479 35.432C25.2319 35.432 26.7079 34.1 27.8239 32.696C28.0039 33.74 28.2199 34.712 28.4719 35.324C29.9119 34.892 31.7119 34.388 32.9719 34.136V33.776C31.3519 33.776 30.4159 33.128 30.4159 30.788V10.34C28.6519 10.952 26.7439 11.456 24.9799 11.6V11.96C26.3839 11.96 27.3919 12.14 27.3919 14.012V21.284ZM18.8599 27.224C18.8599 23.588 19.9399 19.808 23.0719 19.808C25.8439 19.808 27.3919 22.04 27.3919 23.948V29.42C27.3919 33.02 25.5559 34.712 23.2519 34.712C19.3639 34.712 18.8599 29.528 18.8599 27.224Z" fill="white"/>
</svg>
