<svg width="40" height="40" viewBox="0 0 40 40" fill="none" xmlns="http://www.w3.org/2000/svg">
<path d="M20.8728 22.3576C20.8728 20.8792 20.1708 19.7864 18.7206 19.3768C19.7787 18.872 20.3305 18.1072 20.3305 16.9176C20.3305 14.572 18.5801 14 16.5605 14H11V25.7768H16.7162C18.8596 25.7768 20.8728 24.7504 20.8728 22.3576ZM13.5922 16.0104H16.0246C16.9598 16.0104 17.8015 16.2728 17.8015 17.356C17.8015 18.356 17.1466 18.7584 16.2203 18.7584H13.5922V16.0104ZM13.5914 23.7768V20.5336H16.4167C17.5579 20.5336 18.2798 21.0088 18.2798 22.2152C18.2798 23.4048 17.4181 23.7768 16.3632 23.7768H13.5914Z" fill="#FAFAFA"/>
<path d="M26.01 26.0002C28.0496 26.0002 29.3704 25.0826 30.0061 23.1322H27.9362C27.7134 23.8602 26.795 24.245 26.0827 24.245C24.7083 24.245 23.9864 23.441 23.9864 22.0746H30.1458C30.3407 19.3402 28.8202 17.0098 26.0092 17.0098C23.4066 17.0098 21.6402 18.9634 21.6402 21.5226C21.6402 24.1786 23.314 26.0002 26.01 26.0002V26.0002ZM25.9365 18.7794C27.1144 18.7794 27.707 19.4706 27.806 20.601H23.9896C24.0671 19.4802 24.8121 18.7794 25.9365 18.7794Z" fill="#FAFAFA"/>
<path d="M23.5113 14.6184H28.2932V15.7784H23.5113V14.6184Z" fill="#FAFAFA"/>
</svg>
