<svg width="32" height="32" viewBox="0 0 32 32" fill="none" xmlns="http://www.w3.org/2000/svg">
<path d="M13.4983 23.7832L13.8676 24.1782L14.2325 23.7791L24.8818 12.1314L25.2192 11.7624L24.8502 11.425L23.1532 9.87347L22.7842 9.53609L22.4468 9.9051L13.8404 19.3184L9.5406 14.7201L9.1991 14.3548L8.83389 14.6963L7.15443 16.2668L6.78921 16.6083L7.13071 16.9735L13.4983 23.7832ZM31.5 16C31.5 24.5604 24.5604 31.5 16 31.5C7.43959 31.5 0.5 24.5604 0.5 16C0.5 7.43959 7.43959 0.5 16 0.5C24.5604 0.5 31.5 7.43959 31.5 16Z" fill="#F1F4F4" stroke="#185A63"/>
</svg>
