<svg width="16" height="17" viewBox="0 0 16 17" fill="none" xmlns="http://www.w3.org/2000/svg">
<g clip-path="url(#clip0_1809_19528)">
<path d="M8.61129 9.16666C8.44147 10.1534 7.90789 11.0406 7.1159 11.6531C6.32392 12.2656 5.33107 12.559 4.33335 12.4753C3.33564 12.3915 2.40556 11.9368 1.72673 11.2009C1.0479 10.4649 0.669641 9.50121 0.666628 8.5C0.665712 7.4964 1.04209 6.52913 1.72108 5.7901C2.40007 5.05107 3.33207 4.59428 4.33215 4.51035C5.33223 4.42643 6.32731 4.72152 7.11997 5.33706C7.91263 5.9526 8.44494 6.84362 8.61129 7.83333H15.3333V9.16666H14V11.8333H12.6666V9.16666H11.3333V11.8333H9.99996V9.16666H8.61129ZM4.66663 11.1667C5.37387 11.1667 6.05215 10.8857 6.55225 10.3856C7.05234 9.88552 7.33329 9.20724 7.33329 8.5C7.33329 7.79275 7.05234 7.11447 6.55225 6.61438C6.05215 6.11428 5.37387 5.83333 4.66663 5.83333C3.95938 5.83333 3.28111 6.11428 2.78101 6.61438C2.28091 7.11447 1.99996 7.79275 1.99996 8.5C1.99996 9.20724 2.28091 9.88552 2.78101 10.3856C3.28111 10.8857 3.95938 11.1667 4.66663 11.1667V11.1667Z" fill="#BD743C"/>
</g>
<defs>
<clipPath id="clip0_1809_19528">
<rect width="16" height="16" fill="white" transform="translate(0 0.5)"/>
</clipPath>
</defs>
</svg>
