<svg width="40" height="40" viewBox="0 0 40 40" fill="none" xmlns="http://www.w3.org/2000/svg">
<path d="M28.496 27V26.9993H28.5V21.1313C28.5 18.2606 27.882 16.0493 24.526 16.0493C22.9127 16.0493 21.83 16.9347 21.388 17.774H21.3413V16.3173H18.1593V26.9993H21.4727V21.71C21.4727 20.3173 21.7367 18.9707 23.4613 18.9707C25.1607 18.9707 25.186 20.56 25.186 21.7993V27H28.496Z" fill="white"/>
<path d="M12.764 16.3179H16.0813V26.9999H12.764V16.3179Z" fill="white"/>
<path d="M14.4213 11C13.3607 11 12.5 11.8607 12.5 12.9213C12.5 13.982 13.3607 14.8607 14.4213 14.8607C15.482 14.8607 16.3427 13.982 16.3427 12.9213C16.342 11.8607 15.4813 11 14.4213 11V11Z" fill="white"/>
</svg>
