<svg width="28" height="28" viewBox="0 0 28 28" fill="none" xmlns="http://www.w3.org/2000/svg">
<path d="M0.484711 27.5156L2.39411 20.5747C1.21606 18.5434 0.596778 16.2388 0.59745 13.8784C0.600364 6.49321 6.63787 0.484863 14.0561 0.484863C17.6566 0.486425 21.0358 1.88136 23.5764 4.41308C26.1176 6.94481 27.5162 10.3101 27.5149 13.8889C27.5117 21.2744 21.474 27.2834 14.0567 27.2834C14.0561 27.2834 14.057 27.2834 14.0567 27.2834H14.0507C11.7983 27.2825 9.58502 26.7198 7.61936 25.6533L0.484711 27.5156Z" fill="#4DBA52"/>
<path d="M0 28L1.97776 20.8105C0.757799 18.7062 0.116102 16.3193 0.116998 13.8739C0.120136 6.22388 6.37394 0 14.0586 0C17.7878 0.00156184 21.2881 1.44648 23.9203 4.06901C26.5523 6.69154 28.0013 10.1775 28 13.8851C27.9966 21.5349 21.7419 27.7597 14.0586 27.7597C14.0582 27.7597 14.0588 27.7597 14.0586 27.7597H14.0526C11.7193 27.7588 9.42687 27.1762 7.39061 26.0707L0 28ZM7.73286 23.5591L8.15625 23.8087C9.93498 24.8596 11.9744 25.4154 14.0541 25.4165H14.0586C20.4451 25.4165 25.6432 20.2428 25.6459 13.8842C25.647 10.8027 24.443 7.90508 22.2552 5.72544C20.0672 3.54579 17.1582 2.34475 14.0629 2.34341C7.67123 2.34341 2.47332 7.51641 2.47086 13.8748C2.46996 16.0538 3.0823 18.1757 4.24242 20.0119L4.5181 20.4483L3.34722 24.7037L7.73286 23.5591Z" fill="white"/>
<path fill-rule="evenodd" clip-rule="evenodd" d="M10.5742 8.07364C10.3133 7.49621 10.0385 7.48461 9.7902 7.47457C9.58713 7.46587 9.3547 7.46631 9.12272 7.46631C8.89052 7.46631 8.51308 7.55333 8.19391 7.90028C7.87452 8.24723 6.9744 9.08615 6.9744 10.7923C6.9744 12.4987 8.22282 14.1474 8.39698 14.379C8.57113 14.6103 10.8069 18.2235 14.3475 19.6135C17.2902 20.7688 17.8888 20.539 18.5276 20.4812C19.1664 20.4235 20.5885 19.6423 20.8788 18.8326C21.1693 18.0229 21.1693 17.329 21.0821 17.1838C20.9949 17.0394 20.7627 16.9526 20.4144 16.7793C20.0661 16.6059 18.3535 15.7668 18.0341 15.6512C17.7147 15.5354 17.4825 15.4778 17.2503 15.825C17.0179 16.1717 16.3508 16.9526 16.1475 17.1838C15.9443 17.4156 15.741 17.4446 15.3927 17.271C15.0444 17.0972 13.9223 16.7313 12.5914 15.5499C11.5559 14.6309 10.8566 13.4956 10.6533 13.1485C10.4503 12.8017 10.65 12.6304 10.8064 12.441C11.0882 12.0998 11.5609 11.4865 11.677 11.2553C11.7931 11.0237 11.735 10.8213 11.648 10.6478C11.5609 10.4744 10.8837 8.75951 10.5742 8.07364V8.07364Z" fill="white"/>
</svg>
