<svg width="28" height="28" viewBox="0 0 28 28" fill="none" xmlns="http://www.w3.org/2000/svg">
<path d="M18.0224 1.75H5.02995C4.66823 1.75 4.375 2.03656 4.375 2.59262V25.8125C4.375 25.9634 4.66823 26.25 5.02995 26.25H22.9701C23.3318 26.25 23.625 25.9634 23.625 25.8125V7.42787C23.625 7.12337 23.5834 7.02537 23.5099 6.95319L18.3008 1.86244C18.2269 1.79069 18.1267 1.75 18.0224 1.75Z" fill="#EDEDED"/>
<path d="M18.2529 1.81606V7H23.5574L18.2529 1.81606Z" fill="#D3D3D3"/>
<path d="M10.2009 16.3292C10.0451 16.3292 9.8956 16.2798 9.76802 16.1866C9.30199 15.8449 9.23931 15.4647 9.26886 15.2057C9.35034 14.4935 10.2515 13.748 11.9482 12.9885C12.6215 11.5465 13.2621 9.76981 13.644 8.28537C13.1972 7.33512 12.763 6.10225 13.0795 5.37906C13.1905 5.12575 13.3288 4.9315 13.5871 4.8475C13.6892 4.81425 13.9471 4.77225 14.042 4.77225C14.2676 4.77225 14.4659 5.05618 14.6065 5.23118C14.7385 5.39568 15.038 5.74437 14.4395 8.20706C15.043 9.42506 15.898 10.6658 16.7173 11.5154C17.3042 11.4117 17.8091 11.3588 18.2206 11.3588C18.9216 11.3588 19.3465 11.5185 19.5197 11.8475C19.663 12.1196 19.6043 12.4377 19.3451 12.7925C19.0958 13.1333 18.7519 13.3136 18.3513 13.3136C17.8069 13.3136 17.173 12.9776 16.4661 12.3139C15.1961 12.5733 13.7129 13.0362 12.5141 13.5485C12.1398 14.3246 11.7812 14.9498 11.4472 15.4083C10.9884 16.0361 10.5926 16.3292 10.2009 16.3292ZM11.3926 14.0866C10.4359 14.6121 10.046 15.0439 10.0178 15.2871C10.0133 15.3274 10.0013 15.4332 10.2108 15.5899C10.2775 15.5693 10.6669 15.3956 11.3926 14.0866ZM17.4976 12.1432C17.8624 12.4176 17.9515 12.5562 18.1901 12.5562C18.2949 12.5562 18.5935 12.5519 18.7318 12.3633C18.7985 12.2719 18.8245 12.2132 18.8348 12.1817C18.7797 12.1533 18.7067 12.0956 18.3087 12.0956C18.0827 12.096 17.7984 12.1056 17.4976 12.1432ZM14.1534 9.26362C13.8333 10.346 13.4107 11.5146 12.9564 12.5729C13.892 12.2181 14.9091 11.9083 15.8644 11.6891C15.2601 11.0031 14.6562 10.1465 14.1534 9.26362ZM13.8817 5.5615C13.8378 5.57593 13.2863 6.33018 13.9247 6.9685C14.3495 6.04318 13.9009 5.55537 13.8817 5.5615Z" fill="#A12828"/>
<path d="M22.9701 26.25H5.02995C4.66823 26.25 4.375 25.9634 4.375 25.6099V18.8125H23.625V25.6099C23.625 25.9634 23.3318 26.25 22.9701 26.25Z" fill="#A12828"/>
<path fill-rule="evenodd" clip-rule="evenodd" d="M9.24737 24.9375H8.51318V20.5292H9.81054C10.0021 20.5292 10.192 20.559 10.3795 20.6189C10.5671 20.6789 10.7354 20.7686 10.8845 20.888C11.0336 21.0074 11.154 21.1522 11.2458 21.3216C11.3376 21.4909 11.3837 21.6812 11.3837 21.8929C11.3837 22.1165 11.3447 22.3186 11.2673 22.5002C11.1898 22.6817 11.0815 22.8344 10.9427 22.9578C10.8039 23.0812 10.6365 23.177 10.4409 23.2448C10.2452 23.3126 10.0286 23.3463 9.79219 23.3463H9.24737V24.9375ZM9.24782 21.0739V22.82H9.92112C10.0107 22.82 10.0993 22.8051 10.1875 22.7749C10.2752 22.7452 10.3558 22.6962 10.4292 22.6284C10.5026 22.5606 10.5617 22.4661 10.6065 22.3444C10.6513 22.2228 10.6737 22.0723 10.6737 21.8929C10.6737 21.8212 10.6634 21.7381 10.6432 21.6449C10.6226 21.5512 10.581 21.4616 10.5179 21.3758C10.4543 21.2901 10.3657 21.2183 10.2515 21.1606C10.1373 21.1028 9.98603 21.0739 9.79846 21.0739H9.24782ZM15.8887 22.6109C15.8887 22.9736 15.8488 23.2837 15.7691 23.541C15.6894 23.7982 15.5887 24.0135 15.4661 24.1872C15.3434 24.3609 15.206 24.4974 15.0528 24.5971C14.8997 24.6969 14.752 24.7712 14.6092 24.8216C14.4664 24.8714 14.3357 24.9034 14.2175 24.9174C14.0993 24.9305 14.0116 24.9375 13.9543 24.9375H12.2468V20.5292H13.6055C13.9851 20.5292 14.3187 20.5883 14.6061 20.7056C14.8935 20.8228 15.1325 20.9799 15.3223 21.175C15.5122 21.3701 15.6536 21.5928 15.7476 21.8417C15.8417 22.0911 15.8887 22.3475 15.8887 22.6109ZM13.7098 24.4112C14.2076 24.4112 14.5667 24.2559 14.7869 23.9448C15.0072 23.6337 15.1173 23.1831 15.1173 22.5929C15.1173 22.4096 15.0949 22.2281 15.0502 22.0487C15.0049 21.8693 14.9185 21.707 14.7901 21.5613C14.6616 21.4156 14.487 21.2979 14.2667 21.2082C14.0465 21.1186 13.7609 21.0735 13.4099 21.0735H12.9815V24.4112H13.7098ZM17.7006 22.4612V21.0735H19.7751V20.5292H16.9539V24.9375H17.7006V22.9517H19.5857V22.4612H17.7006Z" fill="white"/>
</svg>
